<mxfile host="app.diagrams.net" agent="Mozilla/5.0 (Windows NT 10.0; Win64; x64) AppleWebKit/537.36 (KHTML, like Gecko) Chrome/132.0.0.0 Safari/537.36" version="26.0.11">
  <diagram id="C5RBs43oDa-KdzZeNtuy" name="Page-1">
    <mxGraphModel dx="1509" dy="829" grid="1" gridSize="10" guides="1" tooltips="1" connect="1" arrows="1" fold="1" page="1" pageScale="1" pageWidth="827" pageHeight="1169" math="0" shadow="0">
      <root>
        <mxCell id="WIyWlLk6GJQsqaUBKTNV-0" />
        <mxCell id="WIyWlLk6GJQsqaUBKTNV-1" parent="WIyWlLk6GJQsqaUBKTNV-0" />
        <mxCell id="jih81Qcgf_BnrW6zzYgd-25" style="edgeStyle=none;curved=1;rounded=0;orthogonalLoop=1;jettySize=auto;html=1;exitX=0.5;exitY=1;exitDx=0;exitDy=0;entryX=0.5;entryY=0;entryDx=0;entryDy=0;fontSize=12;startSize=8;endSize=8;" edge="1" parent="WIyWlLk6GJQsqaUBKTNV-1" source="jih81Qcgf_BnrW6zzYgd-1" target="jih81Qcgf_BnrW6zzYgd-6">
          <mxGeometry relative="1" as="geometry" />
        </mxCell>
        <mxCell id="jih81Qcgf_BnrW6zzYgd-1" value="Enter Array Size" style="shape=parallelogram;perimeter=parallelogramPerimeter;whiteSpace=wrap;html=1;fixedSize=1;" vertex="1" parent="WIyWlLk6GJQsqaUBKTNV-1">
          <mxGeometry x="320" y="210" width="120" height="60" as="geometry" />
        </mxCell>
        <mxCell id="jih81Qcgf_BnrW6zzYgd-13" style="edgeStyle=none;curved=1;rounded=0;orthogonalLoop=1;jettySize=auto;html=1;exitX=0.5;exitY=1;exitDx=0;exitDy=0;fontSize=12;startSize=8;endSize=8;" edge="1" parent="WIyWlLk6GJQsqaUBKTNV-1" source="jih81Qcgf_BnrW6zzYgd-6">
          <mxGeometry relative="1" as="geometry">
            <mxPoint x="370" y="460" as="targetPoint" />
          </mxGeometry>
        </mxCell>
        <mxCell id="jih81Qcgf_BnrW6zzYgd-14" value="Yes" style="edgeLabel;html=1;align=center;verticalAlign=middle;resizable=0;points=[];fontSize=12;" vertex="1" connectable="0" parent="jih81Qcgf_BnrW6zzYgd-13">
          <mxGeometry x="-0.1714" relative="1" as="geometry">
            <mxPoint as="offset" />
          </mxGeometry>
        </mxCell>
        <mxCell id="jih81Qcgf_BnrW6zzYgd-15" style="edgeStyle=none;curved=1;rounded=0;orthogonalLoop=1;jettySize=auto;html=1;exitX=1;exitY=0.5;exitDx=0;exitDy=0;fontSize=12;startSize=8;endSize=8;" edge="1" parent="WIyWlLk6GJQsqaUBKTNV-1" source="jih81Qcgf_BnrW6zzYgd-6">
          <mxGeometry relative="1" as="geometry">
            <mxPoint x="520" y="350" as="targetPoint" />
          </mxGeometry>
        </mxCell>
        <mxCell id="jih81Qcgf_BnrW6zzYgd-16" value="No" style="edgeLabel;html=1;align=center;verticalAlign=middle;resizable=0;points=[];fontSize=12;" vertex="1" connectable="0" parent="jih81Qcgf_BnrW6zzYgd-15">
          <mxGeometry x="-0.0545" relative="1" as="geometry">
            <mxPoint as="offset" />
          </mxGeometry>
        </mxCell>
        <mxCell id="jih81Qcgf_BnrW6zzYgd-6" value="is input an integer?" style="rhombus;whiteSpace=wrap;html=1;" vertex="1" parent="WIyWlLk6GJQsqaUBKTNV-1">
          <mxGeometry x="334" y="310" width="80" height="80" as="geometry" />
        </mxCell>
        <mxCell id="jih81Qcgf_BnrW6zzYgd-19" style="edgeStyle=none;curved=1;rounded=0;orthogonalLoop=1;jettySize=auto;html=1;exitX=0.5;exitY=1;exitDx=0;exitDy=0;entryX=0.5;entryY=0;entryDx=0;entryDy=0;fontSize=12;startSize=8;endSize=8;" edge="1" parent="WIyWlLk6GJQsqaUBKTNV-1" source="jih81Qcgf_BnrW6zzYgd-17" target="jih81Qcgf_BnrW6zzYgd-18">
          <mxGeometry relative="1" as="geometry" />
        </mxCell>
        <mxCell id="jih81Qcgf_BnrW6zzYgd-17" value="Creates an Array from users Input" style="rounded=1;whiteSpace=wrap;html=1;" vertex="1" parent="WIyWlLk6GJQsqaUBKTNV-1">
          <mxGeometry x="310" y="450" width="120" height="60" as="geometry" />
        </mxCell>
        <mxCell id="jih81Qcgf_BnrW6zzYgd-35" style="edgeStyle=none;curved=1;rounded=0;orthogonalLoop=1;jettySize=auto;html=1;exitX=0.5;exitY=1;exitDx=0;exitDy=0;fontSize=12;startSize=8;endSize=8;" edge="1" parent="WIyWlLk6GJQsqaUBKTNV-1" source="jih81Qcgf_BnrW6zzYgd-18" target="jih81Qcgf_BnrW6zzYgd-26">
          <mxGeometry relative="1" as="geometry" />
        </mxCell>
        <mxCell id="jih81Qcgf_BnrW6zzYgd-39" value="Yes" style="edgeLabel;html=1;align=center;verticalAlign=middle;resizable=0;points=[];fontSize=12;" vertex="1" connectable="0" parent="jih81Qcgf_BnrW6zzYgd-35">
          <mxGeometry x="-0.2235" y="2" relative="1" as="geometry">
            <mxPoint x="-2" as="offset" />
          </mxGeometry>
        </mxCell>
        <mxCell id="jih81Qcgf_BnrW6zzYgd-45" value="" style="edgeStyle=none;curved=1;rounded=0;orthogonalLoop=1;jettySize=auto;html=1;fontSize=12;startSize=8;endSize=8;" edge="1" parent="WIyWlLk6GJQsqaUBKTNV-1" source="jih81Qcgf_BnrW6zzYgd-18" target="jih81Qcgf_BnrW6zzYgd-26">
          <mxGeometry relative="1" as="geometry" />
        </mxCell>
        <mxCell id="jih81Qcgf_BnrW6zzYgd-18" value="Enter Array Elements" style="shape=parallelogram;perimeter=parallelogramPerimeter;whiteSpace=wrap;html=1;fixedSize=1;" vertex="1" parent="WIyWlLk6GJQsqaUBKTNV-1">
          <mxGeometry x="310" y="560" width="110" height="60" as="geometry" />
        </mxCell>
        <mxCell id="jih81Qcgf_BnrW6zzYgd-21" style="edgeStyle=none;curved=1;rounded=0;orthogonalLoop=1;jettySize=auto;html=1;exitX=1;exitY=0.5;exitDx=0;exitDy=0;fontSize=12;startSize=8;endSize=8;" edge="1" parent="WIyWlLk6GJQsqaUBKTNV-1" source="jih81Qcgf_BnrW6zzYgd-20" target="jih81Qcgf_BnrW6zzYgd-22">
          <mxGeometry relative="1" as="geometry">
            <mxPoint x="700" y="350" as="targetPoint" />
          </mxGeometry>
        </mxCell>
        <mxCell id="jih81Qcgf_BnrW6zzYgd-20" value="Outputs: Input must be an integer" style="rounded=1;whiteSpace=wrap;html=1;" vertex="1" parent="WIyWlLk6GJQsqaUBKTNV-1">
          <mxGeometry x="520" y="320" width="120" height="60" as="geometry" />
        </mxCell>
        <mxCell id="jih81Qcgf_BnrW6zzYgd-22" value="Asks Again to Enter Integer" style="rounded=1;whiteSpace=wrap;html=1;" vertex="1" parent="WIyWlLk6GJQsqaUBKTNV-1">
          <mxGeometry x="700" y="320" width="120" height="60" as="geometry" />
        </mxCell>
        <mxCell id="jih81Qcgf_BnrW6zzYgd-23" style="edgeStyle=none;curved=1;rounded=0;orthogonalLoop=1;jettySize=auto;html=1;exitX=1;exitY=0.5;exitDx=0;exitDy=0;fontSize=12;startSize=8;endSize=8;" edge="1" parent="WIyWlLk6GJQsqaUBKTNV-1" source="jih81Qcgf_BnrW6zzYgd-18" target="jih81Qcgf_BnrW6zzYgd-18">
          <mxGeometry relative="1" as="geometry" />
        </mxCell>
        <mxCell id="jih81Qcgf_BnrW6zzYgd-48" style="edgeStyle=none;curved=1;rounded=0;orthogonalLoop=1;jettySize=auto;html=1;exitX=0.5;exitY=1;exitDx=0;exitDy=0;entryX=0.5;entryY=0;entryDx=0;entryDy=0;fontSize=12;startSize=8;endSize=8;" edge="1" parent="WIyWlLk6GJQsqaUBKTNV-1" source="jih81Qcgf_BnrW6zzYgd-24" target="jih81Qcgf_BnrW6zzYgd-47">
          <mxGeometry relative="1" as="geometry" />
        </mxCell>
        <mxCell id="jih81Qcgf_BnrW6zzYgd-24" value="Start" style="ellipse;whiteSpace=wrap;html=1;" vertex="1" parent="WIyWlLk6GJQsqaUBKTNV-1">
          <mxGeometry x="340" y="60" width="80" height="50" as="geometry" />
        </mxCell>
        <mxCell id="jih81Qcgf_BnrW6zzYgd-31" style="edgeStyle=none;curved=1;rounded=0;orthogonalLoop=1;jettySize=auto;html=1;exitX=1;exitY=0.5;exitDx=0;exitDy=0;entryX=0;entryY=0.5;entryDx=0;entryDy=0;fontSize=12;startSize=8;endSize=8;" edge="1" parent="WIyWlLk6GJQsqaUBKTNV-1" source="jih81Qcgf_BnrW6zzYgd-26" target="jih81Qcgf_BnrW6zzYgd-28">
          <mxGeometry relative="1" as="geometry" />
        </mxCell>
        <mxCell id="jih81Qcgf_BnrW6zzYgd-32" value="No" style="edgeLabel;html=1;align=center;verticalAlign=middle;resizable=0;points=[];fontSize=12;" vertex="1" connectable="0" parent="jih81Qcgf_BnrW6zzYgd-31">
          <mxGeometry x="-0.3759" y="-1" relative="1" as="geometry">
            <mxPoint as="offset" />
          </mxGeometry>
        </mxCell>
        <mxCell id="jih81Qcgf_BnrW6zzYgd-40" style="edgeStyle=none;curved=1;rounded=0;orthogonalLoop=1;jettySize=auto;html=1;exitX=0.5;exitY=1;exitDx=0;exitDy=0;fontSize=12;startSize=8;endSize=8;entryX=0.5;entryY=0;entryDx=0;entryDy=0;" edge="1" parent="WIyWlLk6GJQsqaUBKTNV-1" source="jih81Qcgf_BnrW6zzYgd-26" target="jih81Qcgf_BnrW6zzYgd-50">
          <mxGeometry relative="1" as="geometry">
            <mxPoint x="365.52941176470586" y="800" as="targetPoint" />
          </mxGeometry>
        </mxCell>
        <mxCell id="jih81Qcgf_BnrW6zzYgd-41" value="Yes&lt;div&gt;&lt;br&gt;&lt;/div&gt;" style="edgeLabel;html=1;align=center;verticalAlign=middle;resizable=0;points=[];fontSize=12;" vertex="1" connectable="0" parent="jih81Qcgf_BnrW6zzYgd-40">
          <mxGeometry x="0.0214" y="-2" relative="1" as="geometry">
            <mxPoint as="offset" />
          </mxGeometry>
        </mxCell>
        <mxCell id="jih81Qcgf_BnrW6zzYgd-26" value="is input an integer?" style="rhombus;whiteSpace=wrap;html=1;" vertex="1" parent="WIyWlLk6GJQsqaUBKTNV-1">
          <mxGeometry x="325" y="670" width="80" height="80" as="geometry" />
        </mxCell>
        <mxCell id="jih81Qcgf_BnrW6zzYgd-34" style="edgeStyle=none;curved=1;rounded=0;orthogonalLoop=1;jettySize=auto;html=1;exitX=1;exitY=0.5;exitDx=0;exitDy=0;fontSize=12;startSize=8;endSize=8;" edge="1" parent="WIyWlLk6GJQsqaUBKTNV-1" source="jih81Qcgf_BnrW6zzYgd-28" target="jih81Qcgf_BnrW6zzYgd-33">
          <mxGeometry relative="1" as="geometry" />
        </mxCell>
        <mxCell id="jih81Qcgf_BnrW6zzYgd-28" value="Outputs: Input must be an integer" style="rounded=1;whiteSpace=wrap;html=1;" vertex="1" parent="WIyWlLk6GJQsqaUBKTNV-1">
          <mxGeometry x="490" y="680" width="120" height="60" as="geometry" />
        </mxCell>
        <mxCell id="jih81Qcgf_BnrW6zzYgd-33" value="Asks Again to Enter Integer" style="rounded=1;whiteSpace=wrap;html=1;" vertex="1" parent="WIyWlLk6GJQsqaUBKTNV-1">
          <mxGeometry x="650" y="680" width="120" height="60" as="geometry" />
        </mxCell>
        <mxCell id="jih81Qcgf_BnrW6zzYgd-37" value="" style="curved=1;endArrow=classic;html=1;rounded=0;fontSize=12;startSize=8;endSize=8;entryX=1;entryY=0.25;entryDx=0;entryDy=0;" edge="1" parent="WIyWlLk6GJQsqaUBKTNV-1" target="jih81Qcgf_BnrW6zzYgd-1">
          <mxGeometry width="50" height="50" relative="1" as="geometry">
            <mxPoint x="770" y="320" as="sourcePoint" />
            <mxPoint x="820" y="270" as="targetPoint" />
            <Array as="points">
              <mxPoint x="820" y="320" />
              <mxPoint x="710" y="300" />
            </Array>
          </mxGeometry>
        </mxCell>
        <mxCell id="jih81Qcgf_BnrW6zzYgd-38" value="" style="curved=1;endArrow=classic;html=1;rounded=0;fontSize=12;startSize=8;endSize=8;exitX=1;exitY=0;exitDx=0;exitDy=0;" edge="1" parent="WIyWlLk6GJQsqaUBKTNV-1" source="jih81Qcgf_BnrW6zzYgd-33" target="jih81Qcgf_BnrW6zzYgd-18">
          <mxGeometry width="50" height="50" relative="1" as="geometry">
            <mxPoint x="770" y="670" as="sourcePoint" />
            <mxPoint x="820" y="620" as="targetPoint" />
            <Array as="points">
              <mxPoint x="780" y="680" />
              <mxPoint x="770" y="620" />
            </Array>
          </mxGeometry>
        </mxCell>
        <mxCell id="jih81Qcgf_BnrW6zzYgd-44" style="edgeStyle=none;curved=1;rounded=0;orthogonalLoop=1;jettySize=auto;html=1;exitX=0.5;exitY=1;exitDx=0;exitDy=0;entryX=0.5;entryY=0;entryDx=0;entryDy=0;fontSize=12;startSize=8;endSize=8;" edge="1" parent="WIyWlLk6GJQsqaUBKTNV-1" source="jih81Qcgf_BnrW6zzYgd-42" target="jih81Qcgf_BnrW6zzYgd-43">
          <mxGeometry relative="1" as="geometry" />
        </mxCell>
        <mxCell id="jih81Qcgf_BnrW6zzYgd-42" value="Sorts Array in descending order using timsort" style="rounded=1;whiteSpace=wrap;html=1;" vertex="1" parent="WIyWlLk6GJQsqaUBKTNV-1">
          <mxGeometry x="302.5" y="890" width="125" height="60" as="geometry" />
        </mxCell>
        <mxCell id="jih81Qcgf_BnrW6zzYgd-54" style="edgeStyle=none;curved=1;rounded=0;orthogonalLoop=1;jettySize=auto;html=1;exitX=0.5;exitY=1;exitDx=0;exitDy=0;entryX=0.5;entryY=0;entryDx=0;entryDy=0;fontSize=12;startSize=8;endSize=8;" edge="1" parent="WIyWlLk6GJQsqaUBKTNV-1" source="jih81Qcgf_BnrW6zzYgd-43" target="jih81Qcgf_BnrW6zzYgd-53">
          <mxGeometry relative="1" as="geometry" />
        </mxCell>
        <mxCell id="jih81Qcgf_BnrW6zzYgd-43" value="displays the Sorted Array output" style="rounded=1;whiteSpace=wrap;html=1;" vertex="1" parent="WIyWlLk6GJQsqaUBKTNV-1">
          <mxGeometry x="305" y="990" width="120" height="60" as="geometry" />
        </mxCell>
        <mxCell id="jih81Qcgf_BnrW6zzYgd-47" value="initialize scanner" style="rounded=1;whiteSpace=wrap;html=1;" vertex="1" parent="WIyWlLk6GJQsqaUBKTNV-1">
          <mxGeometry x="342.5" y="130" width="77.5" height="30" as="geometry" />
        </mxCell>
        <mxCell id="jih81Qcgf_BnrW6zzYgd-49" style="edgeStyle=none;curved=1;rounded=0;orthogonalLoop=1;jettySize=auto;html=1;exitX=0.5;exitY=1;exitDx=0;exitDy=0;entryX=0.547;entryY=0.067;entryDx=0;entryDy=0;entryPerimeter=0;fontSize=12;startSize=8;endSize=8;" edge="1" parent="WIyWlLk6GJQsqaUBKTNV-1" source="jih81Qcgf_BnrW6zzYgd-47" target="jih81Qcgf_BnrW6zzYgd-1">
          <mxGeometry relative="1" as="geometry" />
        </mxCell>
        <mxCell id="jih81Qcgf_BnrW6zzYgd-51" style="edgeStyle=none;curved=1;rounded=0;orthogonalLoop=1;jettySize=auto;html=1;exitX=0.5;exitY=1;exitDx=0;exitDy=0;entryX=0.5;entryY=0;entryDx=0;entryDy=0;fontSize=12;startSize=8;endSize=8;" edge="1" parent="WIyWlLk6GJQsqaUBKTNV-1" source="jih81Qcgf_BnrW6zzYgd-50" target="jih81Qcgf_BnrW6zzYgd-42">
          <mxGeometry relative="1" as="geometry" />
        </mxCell>
        <mxCell id="jih81Qcgf_BnrW6zzYgd-50" value="Stores Element in array" style="rounded=1;whiteSpace=wrap;html=1;" vertex="1" parent="WIyWlLk6GJQsqaUBKTNV-1">
          <mxGeometry x="305" y="810" width="120" height="30" as="geometry" />
        </mxCell>
        <mxCell id="jih81Qcgf_BnrW6zzYgd-55" style="edgeStyle=none;curved=1;rounded=0;orthogonalLoop=1;jettySize=auto;html=1;exitX=0.5;exitY=1;exitDx=0;exitDy=0;fontSize=12;startSize=8;endSize=8;" edge="1" parent="WIyWlLk6GJQsqaUBKTNV-1" source="jih81Qcgf_BnrW6zzYgd-53" target="jih81Qcgf_BnrW6zzYgd-56">
          <mxGeometry relative="1" as="geometry">
            <mxPoint x="363.3703703703703" y="1130" as="targetPoint" />
          </mxGeometry>
        </mxCell>
        <mxCell id="jih81Qcgf_BnrW6zzYgd-53" value="Close Scanner" style="rounded=1;whiteSpace=wrap;html=1;" vertex="1" parent="WIyWlLk6GJQsqaUBKTNV-1">
          <mxGeometry x="310" y="1080" width="106" height="30" as="geometry" />
        </mxCell>
        <mxCell id="jih81Qcgf_BnrW6zzYgd-56" value="End" style="rounded=0;whiteSpace=wrap;html=1;" vertex="1" parent="WIyWlLk6GJQsqaUBKTNV-1">
          <mxGeometry x="339.68" y="1130" width="46.63" height="20" as="geometry" />
        </mxCell>
      </root>
    </mxGraphModel>
  </diagram>
</mxfile>
